<!-- SVG Icon Template for Dbrutals -->
<svg width="512" height="512" viewBox="0 0 512 512" xmlns="http://www.w3.org/2000/svg">
  <!-- Background -->
  <rect width="512" height="512" fill="#2563eb" rx="64"/>
  
  <!-- Calendar Icon -->
  <g transform="translate(128, 140)">
    <!-- Calendar body -->
    <rect x="0" y="40" width="256" height="200" fill="#ffffff" rx="12"/>
    
    <!-- Calendar header -->
    <rect x="0" y="0" width="256" height="80" fill="#3b82f6" rx="12"/>
    <rect x="0" y="40" width="256" height="40" fill="#3b82f6"/>
    
    <!-- Binding rings -->
    <circle cx="64" cy="20" r="12" fill="#ffffff"/>
    <circle cx="192" cy="20" r="12" fill="#ffffff"/>
    
    <!-- Calendar grid (simplified) -->
    <line x1="64" y1="100" x2="192" y2="100" stroke="#cbd5e1" stroke-width="4"/>
    <line x1="64" y1="140" x2="192" y2="140" stroke="#cbd5e1" stroke-width="4"/>
    <line x1="64" y1="180" x2="192" y2="180" stroke="#cbd5e1" stroke-width="4"/>
    
    <line x1="100" y1="70" x2="100" y2="210" stroke="#cbd5e1" stroke-width="4"/>
    <line x1="156" y1="70" x2="156" y2="210" stroke="#cbd5e1" stroke-width="4"/>
    
    <!-- Highlight some dates -->
    <circle cx="82" cy="120" r="8" fill="#2563eb"/>
    <circle cx="138" cy="160" r="8" fill="#2563eb"/>
  </g>
  
  <!-- Route indicator (simplified path/route) -->
  <g transform="translate(80, 340)">
    <path d="M 20,30 Q 80,10 140,30 T 260,30" 
          stroke="#ffffff" 
          stroke-width="8" 
          fill="none" 
          stroke-linecap="round"/>
    
    <!-- Route points -->
    <circle cx="20" cy="30" r="14" fill="#ffffff"/>
    <circle cx="140" cy="30" r="14" fill="#ffffff"/>
    <circle cx="260" cy="30" r="14" fill="#ffffff"/>
    
    <!-- Inner dots -->
    <circle cx="20" cy="30" r="6" fill="#2563eb"/>
    <circle cx="140" cy="30" r="6" fill="#2563eb"/>
    <circle cx="260" cy="30" r="6" fill="#2563eb"/>
  </g>
</svg>
